<svg xmlns="http://www.w3.org/2000/svg" width="488.02" height="407.28" viewBox="0 0 488.02 407.28">
  <g>
    <g>
      <path d="M56,480.42v-3.87A2.24,2.24,0,0,1,58.52,474h9.53a2.24,2.24,0,0,1,2.53,2.53v2.68c0,4.17.91,7.17,2.75,9S78.22,491,82.49,491H92.75q6.41,0,9.23-2.9t2.83-9.45v-3.43a8.9,8.9,0,0,0-3.65-7.51,19.57,19.57,0,0,0-9-3.58q-5.35-.81-11.76-2.3a104,104,0,0,1-11.76-3.42,18.43,18.43,0,0,1-9-7.3Q56,445.74,56,437.41v-6.25q0-10.86,6.18-17t17-6.18H95q11,0,17.19,6.18t6.17,17v3.27a2.23,2.23,0,0,1-2.53,2.53H106.3a2.23,2.23,0,0,1-2.53-2.53V432.5q0-6.4-2.76-9.16t-9.15-2.75H82.49q-6.4,0-9.16,2.9t-2.75,9.9V438q0,6.71,9.67,9.08,4.32,1.05,9.45,1.79a79.84,79.84,0,0,1,10.35,2.23,43.46,43.46,0,0,1,9.52,3.95,18.17,18.17,0,0,1,7,7.44,25.4,25.4,0,0,1,2.68,12.13v5.8q0,10.88-6.18,17t-17,6.18H79.36q-10.86,0-17.12-6.18T56,480.42Z" transform="translate(-55.99 -96.36)"/>
      <path d="M154.52,410.47v90.64a2.24,2.24,0,0,1-2.53,2.53h-9.38a2.23,2.23,0,0,1-2.53-2.53V410.47a2.24,2.24,0,0,1,2.53-2.53H152A2.24,2.24,0,0,1,154.52,410.47Z" transform="translate(-55.99 -96.36)"/>
      <path d="M177,501.11V410.47a2.24,2.24,0,0,1,2.53-2.53h35.27q11,0,17.12,5.95t6.1,16.82V438q0,13-12.2,16.67a14.93,14.93,0,0,1,9.6,5.06q3.79,4.32,3.79,11.61v9.53q0,10.86-6.1,16.82t-17,5.95H179.52A2.23,2.23,0,0,1,177,501.11Zm16.07-52.39h19.35q11.31,0,11.31-10.86V431q0-10.71-11-10.72H193.06c-1.09,0-1.63.5-1.63,1.49v25.45C191.43,448.23,192,448.72,193.06,448.72Zm0,42.57H213.9q11.16,0,11.16-10.72v-9.23q0-10.71-11.75-10.71H193.06c-1.09,0-1.63.49-1.63,1.49V489.8C191.43,490.79,192,491.29,193.06,491.29Z" transform="translate(-55.99 -96.36)"/>
      <path d="M274.33,410.47v90.64a2.24,2.24,0,0,1-2.53,2.53h-9.38a2.23,2.23,0,0,1-2.53-2.53V410.47a2.24,2.24,0,0,1,2.53-2.53h9.38A2.24,2.24,0,0,1,274.33,410.47Z" transform="translate(-55.99 -96.36)"/>
      <path d="M347.55,503.64H299.33a2.23,2.23,0,0,1-2.53-2.53V410.47a2.24,2.24,0,0,1,2.53-2.53h9.37a2.24,2.24,0,0,1,2.54,2.53V489.2c0,1,.59,1.49,1.78,1.49h34.53c1.69,0,2.53.89,2.53,2.68v7.74A2.23,2.23,0,0,1,347.55,503.64Z" transform="translate(-55.99 -96.36)"/>
      <path d="M379,410.47v90.64a2.23,2.23,0,0,1-2.53,2.53h-9.37a2.23,2.23,0,0,1-2.53-2.53V410.47a2.24,2.24,0,0,1,2.53-2.53h9.37A2.24,2.24,0,0,1,379,410.47Z" transform="translate(-55.99 -96.36)"/>
      <path d="M399.64,480.42v-3.87a2.24,2.24,0,0,1,2.53-2.53h9.53a2.24,2.24,0,0,1,2.53,2.53v2.68c0,4.17.91,7.17,2.75,9s4.88,2.75,9.15,2.75H436.4q6.41,0,9.23-2.9t2.83-9.45v-3.43a8.9,8.9,0,0,0-3.65-7.51,19.57,19.57,0,0,0-9-3.58q-5.37-.81-11.76-2.3a103.36,103.36,0,0,1-11.76-3.42,18.43,18.43,0,0,1-9-7.3q-3.66-5.36-3.65-13.69v-6.25q0-10.86,6.18-17t17-6.18h15.77q11,0,17.19,6.18t6.18,17v3.27a2.23,2.23,0,0,1-2.53,2.53H450a2.23,2.23,0,0,1-2.53-2.53V432.5q0-6.4-2.76-9.16t-9.15-2.75h-9.38q-6.4,0-9.15,2.9t-2.75,9.9V438q0,6.71,9.67,9.08,4.32,1.05,9.45,1.79a80.2,80.2,0,0,1,10.35,2.23,43.46,43.46,0,0,1,9.52,3.95,18.17,18.17,0,0,1,7,7.44,25.4,25.4,0,0,1,2.67,12.13v5.8q0,10.88-6.17,17t-17,6.18H423q-10.87,0-17.12-6.18T399.64,480.42Z" transform="translate(-55.99 -96.36)"/>
      <path d="M494.89,503.64h-9.37a2.23,2.23,0,0,1-2.53-2.53V410.47a2.24,2.24,0,0,1,2.53-2.53h35.42q10.86,0,17,6t6.1,17v15.48q0,10.86-6.1,17t-17,6.1H499.21c-1.19,0-1.79.5-1.79,1.49v30.06A2.23,2.23,0,0,1,494.89,503.64Zm4.17-46.88h19.79q10.57,0,10.57-11V431.61q0-11-10.57-11H499.06c-1.09,0-1.64.5-1.64,1.49v33.19C497.42,456.26,498,456.76,499.06,456.76Z" transform="translate(-55.99 -96.36)"/>
    </g>
    <g>
      <polygon points="355.37 42.65 355.37 0 132.64 39.27 132.64 41.64 132.64 81.92 132.64 200.4 135.01 199.98 175.29 192.88 293.77 171.99 293.77 129.34 175.29 150.23 175.29 74.4 355.37 42.65"/>
      <polygon points="132.64 214.61 132.64 257.26 355.37 217.99 355.37 215.62 355.37 175.34 355.37 56.87 353 57.28 312.72 64.39 194.25 85.28 194.25 127.93 312.72 107.04 312.72 182.86 132.64 214.61"/>
    </g>
  </g>
</svg>
